<mxfile host="app.diagrams.net" agent="Mozilla/5.0 (Windows NT 10.0; Win64; x64) AppleWebKit/537.36 (KHTML, like Gecko) Chrome/129.0.0.0 Safari/537.36 Edg/129.0.0.0" version="24.8.0">
  <diagram name="Page-1" id="V90Ay2vEslonBkNpXyDp">
    <mxGraphModel dx="1426" dy="783" grid="1" gridSize="10" guides="1" tooltips="1" connect="1" arrows="1" fold="1" page="1" pageScale="1" pageWidth="827" pageHeight="1169" math="0" shadow="0">
      <root>
        <mxCell id="0" />
        <mxCell id="1" parent="0" />
        <mxCell id="l3Y5TMWD0Panj6IDgWsM-4" value="" style="edgeStyle=orthogonalEdgeStyle;rounded=0;orthogonalLoop=1;jettySize=auto;html=1;strokeWidth=1;fontSize=14;" edge="1" parent="1" source="l3Y5TMWD0Panj6IDgWsM-1" target="l3Y5TMWD0Panj6IDgWsM-3">
          <mxGeometry relative="1" as="geometry" />
        </mxCell>
        <mxCell id="l3Y5TMWD0Panj6IDgWsM-1" value="Greeting Page" style="rounded=0;whiteSpace=wrap;html=1;strokeWidth=1;fontSize=14;" vertex="1" parent="1">
          <mxGeometry x="120" y="70" width="120" height="60" as="geometry" />
        </mxCell>
        <mxCell id="l3Y5TMWD0Panj6IDgWsM-2" value="Piano Room Booking Module&lt;div style=&quot;font-size: 14px;&quot;&gt;&lt;br style=&quot;font-size: 14px;&quot;&gt;&lt;/div&gt;" style="text;html=1;align=center;verticalAlign=middle;whiteSpace=wrap;rounded=0;strokeWidth=1;fontSize=14;" vertex="1" parent="1">
          <mxGeometry x="80" y="40" width="200" height="30" as="geometry" />
        </mxCell>
        <mxCell id="l3Y5TMWD0Panj6IDgWsM-6" value="" style="edgeStyle=orthogonalEdgeStyle;rounded=0;orthogonalLoop=1;jettySize=auto;html=1;strokeWidth=1;fontSize=14;" edge="1" parent="1" source="l3Y5TMWD0Panj6IDgWsM-3" target="l3Y5TMWD0Panj6IDgWsM-5">
          <mxGeometry relative="1" as="geometry" />
        </mxCell>
        <mxCell id="l3Y5TMWD0Panj6IDgWsM-8" value="" style="edgeStyle=orthogonalEdgeStyle;rounded=0;orthogonalLoop=1;jettySize=auto;html=1;strokeWidth=1;fontSize=14;" edge="1" parent="1" source="l3Y5TMWD0Panj6IDgWsM-3" target="l3Y5TMWD0Panj6IDgWsM-7">
          <mxGeometry relative="1" as="geometry" />
        </mxCell>
        <mxCell id="l3Y5TMWD0Panj6IDgWsM-3" value="Auth?" style="rhombus;whiteSpace=wrap;html=1;rounded=0;strokeWidth=1;fontSize=14;" vertex="1" parent="1">
          <mxGeometry x="140" y="200" width="80" height="80" as="geometry" />
        </mxCell>
        <mxCell id="l3Y5TMWD0Panj6IDgWsM-58" style="edgeStyle=orthogonalEdgeStyle;rounded=0;orthogonalLoop=1;jettySize=auto;html=1;exitX=1;exitY=0.5;exitDx=0;exitDy=0;entryX=0.5;entryY=0;entryDx=0;entryDy=0;" edge="1" parent="1" source="l3Y5TMWD0Panj6IDgWsM-5" target="l3Y5TMWD0Panj6IDgWsM-57">
          <mxGeometry relative="1" as="geometry" />
        </mxCell>
        <mxCell id="l3Y5TMWD0Panj6IDgWsM-5" value="Book as Guest" style="whiteSpace=wrap;html=1;rounded=0;strokeWidth=1;fontSize=14;" vertex="1" parent="1">
          <mxGeometry x="340" y="210" width="120" height="60" as="geometry" />
        </mxCell>
        <mxCell id="l3Y5TMWD0Panj6IDgWsM-22" value="" style="edgeStyle=orthogonalEdgeStyle;rounded=0;orthogonalLoop=1;jettySize=auto;html=1;strokeWidth=1;fontSize=14;" edge="1" parent="1" source="l3Y5TMWD0Panj6IDgWsM-7" target="l3Y5TMWD0Panj6IDgWsM-21">
          <mxGeometry relative="1" as="geometry" />
        </mxCell>
        <mxCell id="l3Y5TMWD0Panj6IDgWsM-7" value="Member Booking" style="whiteSpace=wrap;html=1;rounded=0;strokeWidth=1;fontSize=14;" vertex="1" parent="1">
          <mxGeometry x="120" y="410" width="120" height="60" as="geometry" />
        </mxCell>
        <mxCell id="l3Y5TMWD0Panj6IDgWsM-9" value="" style="endArrow=classic;html=1;rounded=0;strokeWidth=1;fontSize=14;" edge="1" parent="1">
          <mxGeometry width="50" height="50" relative="1" as="geometry">
            <mxPoint x="279.5" y="240" as="sourcePoint" />
            <mxPoint x="279.5" y="310" as="targetPoint" />
          </mxGeometry>
        </mxCell>
        <mxCell id="l3Y5TMWD0Panj6IDgWsM-11" style="edgeStyle=orthogonalEdgeStyle;rounded=0;orthogonalLoop=1;jettySize=auto;html=1;exitX=0.5;exitY=1;exitDx=0;exitDy=0;entryX=1;entryY=0.5;entryDx=0;entryDy=0;strokeWidth=1;fontSize=14;" edge="1" parent="1" source="l3Y5TMWD0Panj6IDgWsM-10" target="l3Y5TMWD0Panj6IDgWsM-7">
          <mxGeometry relative="1" as="geometry" />
        </mxCell>
        <mxCell id="l3Y5TMWD0Panj6IDgWsM-12" style="edgeStyle=orthogonalEdgeStyle;rounded=0;orthogonalLoop=1;jettySize=auto;html=1;exitX=1;exitY=0.5;exitDx=0;exitDy=0;entryX=0.5;entryY=1;entryDx=0;entryDy=0;strokeWidth=1;fontSize=14;" edge="1" parent="1" source="l3Y5TMWD0Panj6IDgWsM-10" target="l3Y5TMWD0Panj6IDgWsM-5">
          <mxGeometry relative="1" as="geometry" />
        </mxCell>
        <mxCell id="l3Y5TMWD0Panj6IDgWsM-10" value="Register?" style="rhombus;whiteSpace=wrap;html=1;strokeWidth=1;fontSize=14;" vertex="1" parent="1">
          <mxGeometry x="240" y="310" width="80" height="80" as="geometry" />
        </mxCell>
        <mxCell id="l3Y5TMWD0Panj6IDgWsM-13" value="True" style="text;html=1;align=center;verticalAlign=middle;whiteSpace=wrap;rounded=0;strokeWidth=1;fontSize=14;" vertex="1" parent="1">
          <mxGeometry x="280" y="410" width="60" height="30" as="geometry" />
        </mxCell>
        <mxCell id="l3Y5TMWD0Panj6IDgWsM-14" value="False" style="text;html=1;align=center;verticalAlign=middle;whiteSpace=wrap;rounded=0;strokeWidth=1;fontSize=14;" vertex="1" parent="1">
          <mxGeometry x="330" y="320" width="60" height="30" as="geometry" />
        </mxCell>
        <mxCell id="l3Y5TMWD0Panj6IDgWsM-17" value="*(please refer to Auth module)" style="text;html=1;align=center;verticalAlign=middle;whiteSpace=wrap;rounded=0;strokeWidth=1;fontSize=14;" vertex="1" parent="1">
          <mxGeometry x="180" y="280" width="100" height="30" as="geometry" />
        </mxCell>
        <mxCell id="l3Y5TMWD0Panj6IDgWsM-25" value="" style="edgeStyle=orthogonalEdgeStyle;rounded=0;orthogonalLoop=1;jettySize=auto;html=1;" edge="1" parent="1" source="l3Y5TMWD0Panj6IDgWsM-21" target="l3Y5TMWD0Panj6IDgWsM-24">
          <mxGeometry relative="1" as="geometry" />
        </mxCell>
        <mxCell id="l3Y5TMWD0Panj6IDgWsM-21" value="Studio&amp;nbsp;&lt;span style=&quot;background-color: initial; font-size: 14px;&quot;&gt;Booking Page&lt;/span&gt;" style="whiteSpace=wrap;html=1;rounded=0;strokeWidth=1;fontSize=14;" vertex="1" parent="1">
          <mxGeometry x="105" y="550" width="150" height="80" as="geometry" />
        </mxCell>
        <mxCell id="l3Y5TMWD0Panj6IDgWsM-27" value="" style="edgeStyle=orthogonalEdgeStyle;rounded=0;orthogonalLoop=1;jettySize=auto;html=1;" edge="1" parent="1" source="l3Y5TMWD0Panj6IDgWsM-24" target="l3Y5TMWD0Panj6IDgWsM-26">
          <mxGeometry relative="1" as="geometry" />
        </mxCell>
        <mxCell id="l3Y5TMWD0Panj6IDgWsM-24" value="Select Date in Calendar" style="whiteSpace=wrap;html=1;fontSize=14;rounded=0;strokeWidth=1;" vertex="1" parent="1">
          <mxGeometry x="110" y="650" width="140" height="60" as="geometry" />
        </mxCell>
        <mxCell id="l3Y5TMWD0Panj6IDgWsM-30" value="" style="edgeStyle=orthogonalEdgeStyle;rounded=0;orthogonalLoop=1;jettySize=auto;html=1;" edge="1" parent="1" source="l3Y5TMWD0Panj6IDgWsM-26" target="l3Y5TMWD0Panj6IDgWsM-29">
          <mxGeometry relative="1" as="geometry" />
        </mxCell>
        <mxCell id="l3Y5TMWD0Panj6IDgWsM-26" value="Available Time Slots" style="whiteSpace=wrap;html=1;fontSize=14;rounded=0;strokeWidth=1;" vertex="1" parent="1">
          <mxGeometry x="110" y="730" width="140" height="60" as="geometry" />
        </mxCell>
        <mxCell id="l3Y5TMWD0Panj6IDgWsM-34" value="" style="edgeStyle=orthogonalEdgeStyle;rounded=0;orthogonalLoop=1;jettySize=auto;html=1;" edge="1" parent="1" source="l3Y5TMWD0Panj6IDgWsM-29" target="l3Y5TMWD0Panj6IDgWsM-33">
          <mxGeometry relative="1" as="geometry" />
        </mxCell>
        <mxCell id="l3Y5TMWD0Panj6IDgWsM-29" value="input additional Data &amp;amp; Requirement, Terms&amp;nbsp;" style="whiteSpace=wrap;html=1;fontSize=14;rounded=0;strokeWidth=1;" vertex="1" parent="1">
          <mxGeometry x="110" y="810" width="140" height="60" as="geometry" />
        </mxCell>
        <mxCell id="l3Y5TMWD0Panj6IDgWsM-39" style="edgeStyle=orthogonalEdgeStyle;rounded=0;orthogonalLoop=1;jettySize=auto;html=1;exitX=0.5;exitY=1;exitDx=0;exitDy=0;entryX=0.5;entryY=0;entryDx=0;entryDy=0;" edge="1" parent="1" source="l3Y5TMWD0Panj6IDgWsM-31" target="l3Y5TMWD0Panj6IDgWsM-38">
          <mxGeometry relative="1" as="geometry" />
        </mxCell>
        <mxCell id="l3Y5TMWD0Panj6IDgWsM-31" value="Payment Providers (payme, FPS, card ...etc)" style="rounded=1;whiteSpace=wrap;html=1;" vertex="1" parent="1">
          <mxGeometry x="450" y="920" width="120" height="60" as="geometry" />
        </mxCell>
        <mxCell id="l3Y5TMWD0Panj6IDgWsM-36" value="" style="edgeStyle=orthogonalEdgeStyle;rounded=0;orthogonalLoop=1;jettySize=auto;html=1;" edge="1" parent="1" source="l3Y5TMWD0Panj6IDgWsM-33" target="l3Y5TMWD0Panj6IDgWsM-35">
          <mxGeometry relative="1" as="geometry" />
        </mxCell>
        <mxCell id="l3Y5TMWD0Panj6IDgWsM-33" value="Payment Process Page" style="whiteSpace=wrap;html=1;fontSize=14;rounded=0;strokeWidth=1;" vertex="1" parent="1">
          <mxGeometry x="120" y="920" width="120" height="60" as="geometry" />
        </mxCell>
        <mxCell id="l3Y5TMWD0Panj6IDgWsM-37" value="" style="edgeStyle=orthogonalEdgeStyle;rounded=0;orthogonalLoop=1;jettySize=auto;html=1;" edge="1" parent="1" source="l3Y5TMWD0Panj6IDgWsM-35" target="l3Y5TMWD0Panj6IDgWsM-31">
          <mxGeometry relative="1" as="geometry" />
        </mxCell>
        <mxCell id="l3Y5TMWD0Panj6IDgWsM-35" value="Gateway(Stripe etc)" style="whiteSpace=wrap;html=1;fontSize=14;rounded=0;strokeWidth=1;" vertex="1" parent="1">
          <mxGeometry x="270" y="920" width="150" height="60" as="geometry" />
        </mxCell>
        <mxCell id="l3Y5TMWD0Panj6IDgWsM-49" style="edgeStyle=orthogonalEdgeStyle;rounded=0;orthogonalLoop=1;jettySize=auto;html=1;exitX=0.5;exitY=1;exitDx=0;exitDy=0;entryX=0.5;entryY=0;entryDx=0;entryDy=0;" edge="1" parent="1" source="l3Y5TMWD0Panj6IDgWsM-38" target="l3Y5TMWD0Panj6IDgWsM-44">
          <mxGeometry relative="1" as="geometry" />
        </mxCell>
        <mxCell id="l3Y5TMWD0Panj6IDgWsM-51" style="edgeStyle=orthogonalEdgeStyle;rounded=0;orthogonalLoop=1;jettySize=auto;html=1;exitX=0;exitY=0.5;exitDx=0;exitDy=0;entryX=0.5;entryY=1;entryDx=0;entryDy=0;" edge="1" parent="1" source="l3Y5TMWD0Panj6IDgWsM-38" target="l3Y5TMWD0Panj6IDgWsM-33">
          <mxGeometry relative="1" as="geometry" />
        </mxCell>
        <mxCell id="l3Y5TMWD0Panj6IDgWsM-38" value="Callback Handler" style="rhombus;whiteSpace=wrap;html=1;" vertex="1" parent="1">
          <mxGeometry x="470" y="1010" width="80" height="80" as="geometry" />
        </mxCell>
        <mxCell id="l3Y5TMWD0Panj6IDgWsM-55" value="" style="edgeStyle=orthogonalEdgeStyle;rounded=0;orthogonalLoop=1;jettySize=auto;html=1;" edge="1" parent="1" source="l3Y5TMWD0Panj6IDgWsM-44" target="l3Y5TMWD0Panj6IDgWsM-54">
          <mxGeometry relative="1" as="geometry" />
        </mxCell>
        <mxCell id="l3Y5TMWD0Panj6IDgWsM-61" value="" style="edgeStyle=orthogonalEdgeStyle;rounded=0;orthogonalLoop=1;jettySize=auto;html=1;" edge="1" parent="1" source="l3Y5TMWD0Panj6IDgWsM-44" target="l3Y5TMWD0Panj6IDgWsM-60">
          <mxGeometry relative="1" as="geometry" />
        </mxCell>
        <mxCell id="l3Y5TMWD0Panj6IDgWsM-44" value="Confirmation, booking detail, access key" style="rounded=0;whiteSpace=wrap;html=1;" vertex="1" parent="1">
          <mxGeometry x="450" y="1130" width="120" height="60" as="geometry" />
        </mxCell>
        <mxCell id="l3Y5TMWD0Panj6IDgWsM-50" value="Payment Success" style="text;html=1;align=center;verticalAlign=middle;whiteSpace=wrap;rounded=0;" vertex="1" parent="1">
          <mxGeometry x="520" y="1090" width="60" height="30" as="geometry" />
        </mxCell>
        <mxCell id="l3Y5TMWD0Panj6IDgWsM-52" value="Payment Fail" style="text;html=1;align=center;verticalAlign=middle;whiteSpace=wrap;rounded=0;" vertex="1" parent="1">
          <mxGeometry x="290" y="1020" width="60" height="30" as="geometry" />
        </mxCell>
        <mxCell id="l3Y5TMWD0Panj6IDgWsM-54" value="Save to View My Booking" style="whiteSpace=wrap;html=1;rounded=0;" vertex="1" parent="1">
          <mxGeometry x="280" y="1130" width="120" height="60" as="geometry" />
        </mxCell>
        <mxCell id="l3Y5TMWD0Panj6IDgWsM-59" style="edgeStyle=orthogonalEdgeStyle;rounded=0;orthogonalLoop=1;jettySize=auto;html=1;exitX=0.5;exitY=1;exitDx=0;exitDy=0;entryX=1;entryY=0.5;entryDx=0;entryDy=0;" edge="1" parent="1" source="l3Y5TMWD0Panj6IDgWsM-57" target="l3Y5TMWD0Panj6IDgWsM-21">
          <mxGeometry relative="1" as="geometry" />
        </mxCell>
        <mxCell id="l3Y5TMWD0Panj6IDgWsM-57" value="Input email / id card first 4 digit (for view booking and identification)" style="rounded=0;whiteSpace=wrap;html=1;fontSize=14;" vertex="1" parent="1">
          <mxGeometry x="420" y="380" width="170" height="90" as="geometry" />
        </mxCell>
        <mxCell id="l3Y5TMWD0Panj6IDgWsM-60" value="Email Notification" style="whiteSpace=wrap;html=1;rounded=0;" vertex="1" parent="1">
          <mxGeometry x="450" y="1220" width="120" height="60" as="geometry" />
        </mxCell>
        <mxCell id="l3Y5TMWD0Panj6IDgWsM-62" value="* Need refund process once not approved or handle any accidental issue" style="text;html=1;align=center;verticalAlign=middle;whiteSpace=wrap;rounded=0;" vertex="1" parent="1">
          <mxGeometry x="630" y="980" width="180" height="30" as="geometry" />
        </mxCell>
      </root>
    </mxGraphModel>
  </diagram>
</mxfile>
